<?xml version="1.0" encoding="UTF-8" standalone="no"?><!DOCTYPE svg PUBLIC "-//W3C//DTD SVG 1.1//EN" "http://www.w3.org/Graphics/SVG/1.1/DTD/svg11.dtd"><svg width="100%" height="100%" viewBox="0 0 200 200" version="1.1" xmlns="http://www.w3.org/2000/svg" xmlns:xlink="http://www.w3.org/1999/xlink" xml:space="preserve" xmlns:serif="http://www.serif.com/" style="fill-rule:evenodd;clip-rule:evenodd;stroke-linejoin:round;stroke-miterlimit:2;"><rect id="Artboard1" x="0" y="0" width="200" height="200" style="fill:none;"/><g id="Artboard11" serif:id="Artboard1"><rect x="0" y="0" width="200" height="200" style="fill:#8167c2;"/><g id="row4"><g id="gopher"><path d="M166.414,158.913c1.806,-1.774 4.238,-2.769 6.772,-2.769l3.737,-0c2.35,-0 4.502,0.849 6.165,2.256c0.477,-0.421 1.103,-0.676 1.788,-0.676c1.492,-0 2.703,1.211 2.703,2.702c0,1.073 -0.626,2 -1.532,2.437c0.278,0.895 0.427,1.846 0.427,2.833l0,8.647l1.667,0.503c0.307,0.092 0.564,0.303 0.715,0.585c0.152,0.282 0.185,0.613 0.093,0.92c-0,0 -0.001,0 -0.001,0c-0.092,0.307 -0.303,0.564 -0.585,0.716c-0.282,0.151 -0.613,0.184 -0.92,0.092l-0.969,-0.292l0,7.013c0,2.336 -0.847,4.474 -2.25,6.124l1.101,1.366c0.201,0.249 0.295,0.568 0.261,0.887c-0.034,0.318 -0.193,0.61 -0.443,0.811c0,0 0,0 -0,0c-0.249,0.201 -0.568,0.295 -0.887,0.261c-0.318,-0.034 -0.61,-0.193 -0.811,-0.443l-1.011,-1.253c-1.534,1.073 -3.401,1.703 -5.415,1.703l-4.353,-0c-1.663,-0 -3.222,-0.444 -4.567,-1.22l-2.199,1.525c-0.263,0.182 -0.588,0.253 -0.903,0.196c-0.316,-0.057 -0.595,-0.237 -0.778,-0.5c0,-0.001 0,-0.001 0,-0.001c-0.182,-0.263 -0.253,-0.588 -0.196,-0.903c0.057,-0.315 0.237,-0.595 0.5,-0.778l1.581,-1.095c-1.598,-1.646 -2.582,-3.892 -2.582,-6.368l0,-7.137l-0.859,0.35c-0.297,0.12 -0.629,0.118 -0.925,-0.007c-0.295,-0.124 -0.528,-0.361 -0.649,-0.658c0,0 -0,0 -0,0c-0.121,-0.297 -0.119,-0.629 0.006,-0.924c0.125,-0.295 0.361,-0.529 0.658,-0.65l1.769,-0.719l0,-8.639c0,-0.772 0.092,-1.534 0.271,-2.272c-1.061,-0.365 -1.823,-1.372 -1.823,-2.556c-0,-1.492 1.211,-2.703 2.702,-2.703c0.664,0 1.271,0.24 1.742,0.636Z" style="fill:#745cb8;"/><path d="M173.502,164.955c-0.023,-0.061 -0.036,-0.125 -0.036,-0.191c0,-0.481 0.654,-0.871 1.46,-0.871c0.806,-0 1.46,0.39 1.46,0.871c-0,0.063 -0.012,0.125 -0.033,0.185c1.371,0.379 1.562,1.243 1.562,1.688c0,0.552 -0.44,0.999 -0.983,0.999c-0.141,0 -0.294,-0.025 -0.454,-0.061l0,1.191c0,0.471 -0.382,0.853 -0.854,0.853c0,0 -0,0 -0,0c-0.472,0 -0.854,-0.382 -0.854,-0.853l-0,-1.479c-0,-0 -0,1.479 -0,1.479c-0,0.471 -0.383,0.853 -0.854,0.853c-0,0 -0.001,0 -0.001,0c-0.471,0 -0.854,-0.382 -0.854,-0.853l0,-1.134c-0.038,0.003 -0.076,0.004 -0.113,0.004c-0.268,0 -0.525,-0.108 -0.715,-0.301c-0.19,-0.192 -0.296,-0.454 -0.296,-0.726c-0,-0.397 0.366,-1.267 1.565,-1.654Z" style="fill:#8167c2;"/><path d="M178.886,157.385c2.115,-0 3.833,1.717 3.833,3.832c-0,2.115 -1.718,3.832 -3.833,3.832c-2.115,0 -3.832,-1.717 -3.832,-3.832c-0,-2.115 1.717,-3.832 3.832,-3.832Zm-1.368,3.041c0.625,0 1.133,0.508 1.133,1.133c-0,0.625 -0.508,1.133 -1.133,1.133c-0.625,-0 -1.132,-0.508 -1.132,-1.133c-0,-0.625 0.507,-1.133 1.132,-1.133Z" style="fill:#8167c2;"/><path d="M170.051,158.277c1.986,0 3.599,1.613 3.599,3.599c-0,1.987 -1.613,3.599 -3.599,3.599c-1.987,0 -3.599,-1.612 -3.599,-3.599c-0,-1.986 1.612,-3.599 3.599,-3.599Zm0.753,3.72c0.625,-0 1.133,0.507 1.133,1.132c-0,0.625 -0.508,1.133 -1.133,1.133c-0.625,-0 -1.132,-0.508 -1.132,-1.133c-0,-0.625 0.507,-1.132 1.132,-1.132Z" style="fill:#8167c2;"/></g><path d="M132.014,183.613l-25.817,0c-0.128,-0.46 -0.197,-0.946 -0.197,-1.447c0,-2.971 2.412,-5.383 5.383,-5.383c0.094,-0 0.187,0.002 0.279,0.007c-0.18,-0.46 -0.279,-0.96 -0.279,-1.483c-0,-2.246 1.823,-4.069 4.069,-4.069c0.99,0 1.897,0.354 2.603,0.943c1.317,-3.389 4.612,-5.794 8.465,-5.794c4.278,-0 7.869,2.966 8.827,6.953c-0.182,0.625 -0.427,1.405 -0.646,1.892c-0.422,0.944 -1.282,2.114 -1.928,2.641c-0.513,0.42 -1.46,0.748 -2.253,0.795c-2.69,0.158 -13.887,0.157 -13.887,0.157c-0.168,0.001 -0.303,0.137 -0.303,0.304l0,0c0,0.082 0.033,0.16 0.091,0.218c0.057,0.058 0.136,0.091 0.218,0.091c-0,-0 10.899,-0.01 13.497,0.082c0.742,0.026 1.669,0.548 1.956,1.058c0.262,0.466 0.247,1.377 0.152,2.048c-0.035,0.245 -0.123,0.602 -0.23,0.987Zm3.931,-10.096c0.152,-0.009 0.306,-0.014 0.461,-0.014c4.191,-0 7.594,3.403 7.594,7.594c0,0.882 -0.151,1.729 -0.428,2.516l-10.962,0c0.14,-0.417 0.285,-0.805 0.417,-1.07c0.412,-0.826 1.098,-1.716 1.677,-2.205c0.504,-0.427 1.425,-0.777 2.223,-0.858c0.99,-0.1 3.159,-0.046 3.159,-0.046c0.177,-0 0.321,-0.142 0.325,-0.318c-0,-0 -0,-0 -0,-0.001c0.001,-0.094 -0.035,-0.185 -0.101,-0.252c-0.066,-0.067 -0.156,-0.104 -0.25,-0.104c-0,-0 -1.912,-0.013 -2.83,-0.066c-0.619,-0.036 -1.349,-0.374 -1.652,-0.766c-0.359,-0.464 -0.452,-1.484 -0.285,-2.211c0.127,-0.552 0.42,-1.487 0.652,-2.199Z" style="fill:#745cb8;"/><path d="M62.116,169.593l-3.116,-14.676l19.819,15.984l3.295,-4.438l8.886,-1.794l-4.577,7.216l0.066,9.71l-23.897,13.488l6.519,-10.646l5.899,-3.691l-6.083,1.326l-5.657,-9.335l11.376,3.08l-12.53,-6.224Z" style="fill:#745cb8;"/><g id="ts-logo"><path d="M40.618,194l-31.236,0c-1.868,0 -3.382,-1.514 -3.382,-3.382l-0,-31.236c-0,-1.868 1.514,-3.382 3.382,-3.382l31.236,0c1.868,0 3.382,1.514 3.382,3.382l-0,31.236c-0,1.868 -1.514,3.382 -3.382,3.382" style="fill:#745cb8;fill-rule:nonzero;"/><path d="M20.165,176.764l-3.375,-0c-0.373,-0 -0.676,-0.303 -0.676,-0.676l-0,-1.905c-0,-0.373 0.303,-0.676 0.676,-0.676l11.987,-0c0.373,-0 0.676,0.303 0.676,0.676l0,1.905c0,0.373 -0.303,0.676 -0.676,0.676l-3.376,-0c-0.373,-0 -0.676,0.303 -0.676,0.676l0,12.568c0,0.373 -0.303,0.676 -0.676,0.676l-2.531,0c-0.374,0 -0.676,-0.303 -0.676,-0.676l-0,-12.568c-0,-0.373 -0.303,-0.676 -0.677,-0.676" style="fill:#8167c2;fill-rule:nonzero;"/><path d="M29.343,188.006l1.378,-1.646c0.228,-0.273 0.631,-0.325 0.916,-0.112c1.138,0.845 2.498,1.399 3.728,1.399c1.621,0 2.414,-0.638 2.414,-1.658c0,-1.081 -0.976,-1.428 -2.477,-2.045l-2.232,-0.952c-1.78,-0.724 -3.466,-2.186 -3.466,-4.682c-0,-2.846 2.542,-5.119 6.118,-5.119c1.766,-0 3.604,0.621 5.031,1.802c0.285,0.236 0.328,0.656 0.097,0.945l-1.163,1.453c-0.221,0.275 -0.613,0.33 -0.906,0.134c-0.955,-0.636 -1.905,-0.981 -3.059,-0.981c-1.339,-0 -2.191,0.557 -2.191,1.54c-0,1.053 1.123,1.436 2.623,2.033l2.188,0.887c2.098,0.848 3.408,2.245 3.408,4.672c-0,2.853 -2.379,5.324 -6.472,5.324c-2.017,0 -4.148,-0.689 -5.832,-2.026c-0.3,-0.238 -0.349,-0.674 -0.103,-0.968" style="fill:#8167c2;fill-rule:nonzero;"/></g></g><g id="row3"><g id="octo-cat-icon"><path d="M11.251,125c-0,6.074 3.939,11.228 9.402,13.046c0.687,0.127 0.94,-0.298 0.94,-0.661c-0,-0.328 -0.013,-1.411 -0.019,-2.56c-3.825,0.832 -4.632,-1.622 -4.632,-1.622c-0.626,-1.589 -1.527,-2.012 -1.527,-2.012c-1.247,-0.853 0.094,-0.836 0.094,-0.836c1.381,0.097 2.108,1.417 2.108,1.417c1.226,2.102 3.216,1.494 4.001,1.143c0.123,-0.888 0.48,-1.495 0.873,-1.838c-3.054,-0.348 -6.264,-1.527 -6.264,-6.795c-0,-1.501 0.537,-2.728 1.416,-3.691c-0.142,-0.346 -0.613,-1.744 0.134,-3.638c-0,-0 1.154,-0.37 3.781,1.409c1.097,-0.305 2.273,-0.457 3.442,-0.463c1.168,0.006 2.345,0.158 3.444,0.463c2.624,-1.779 3.777,-1.409 3.777,-1.409c0.749,1.894 0.278,3.292 0.135,3.638c0.882,0.963 1.415,2.19 1.415,3.691c0,5.281 -3.216,6.443 -6.278,6.784c0.493,0.426 0.933,1.263 0.933,2.546c-0,1.839 -0.016,3.32 -0.016,3.773c0,0.366 0.248,0.794 0.944,0.659c5.46,-1.82 9.395,-6.972 9.395,-13.044c-0,-7.594 -6.156,-13.749 -13.749,-13.749c-7.592,-0 -13.749,6.155 -13.749,13.749Z" style="fill:#745cb8;fill-rule:nonzero;"/><path d="M16.099,130.827c-0.032,0.068 0.024,0.162 0.124,0.206c0.098,0.047 0.205,0.027 0.235,-0.041c0.035,-0.069 -0.022,-0.163 -0.122,-0.208c-0.037,-0.017 -0.075,-0.026 -0.109,-0.026c-0.059,0 -0.109,0.024 -0.128,0.069Z" style="fill:#745cb8;fill-rule:nonzero;"/><path d="M16.694,131.263c-0.066,0.062 -0.05,0.19 0.04,0.286c0.087,0.096 0.216,0.124 0.281,0.064c0.069,-0.062 0.051,-0.189 -0.039,-0.286c-0.058,-0.062 -0.13,-0.096 -0.192,-0.096c-0.034,0 -0.066,0.011 -0.09,0.032Z" style="fill:#745cb8;fill-rule:nonzero;"/><path d="M17.252,131.958c-0.086,0.059 -0.086,0.206 -0.002,0.328c0.085,0.122 0.223,0.177 0.307,0.118c0.086,-0.059 0.086,-0.206 0.002,-0.33c-0.062,-0.088 -0.15,-0.14 -0.226,-0.14c-0.03,0 -0.057,0.008 -0.081,0.024Z" style="fill:#745cb8;fill-rule:nonzero;"/><path d="M17.869,132.765c-0.076,0.084 -0.043,0.241 0.078,0.352c0.117,0.113 0.278,0.136 0.353,0.053c0.08,-0.083 0.044,-0.241 -0.075,-0.352c-0.071,-0.067 -0.157,-0.102 -0.231,-0.102c-0.05,-0 -0.095,0.016 -0.125,0.049Z" style="fill:#745cb8;fill-rule:nonzero;"/><path d="M18.755,133.443c-0.031,0.108 0.07,0.234 0.226,0.282c0.156,0.045 0.31,-0.004 0.344,-0.111c0.032,-0.11 -0.07,-0.235 -0.225,-0.282c-0.041,-0.013 -0.082,-0.019 -0.12,-0.019c-0.11,0 -0.201,0.049 -0.225,0.13Z" style="fill:#745cb8;fill-rule:nonzero;"/><path d="M20.152,133.495c-0.164,0.003 -0.293,0.096 -0.293,0.211c0.002,0.111 0.135,0.203 0.299,0.199c0.164,-0.002 0.296,-0.096 0.292,-0.209c-0,-0.111 -0.13,-0.201 -0.289,-0.201c-0.003,0 -0.006,0 -0.009,0Z" style="fill:#745cb8;fill-rule:nonzero;"/><path d="M21.168,133.367c-0.159,0.029 -0.275,0.143 -0.255,0.256c0.02,0.11 0.168,0.179 0.327,0.149c0.163,-0.03 0.276,-0.144 0.257,-0.254c-0.018,-0.095 -0.124,-0.157 -0.255,-0.157c-0.024,-0 -0.049,0.002 -0.074,0.006Z" style="fill:#745cb8;fill-rule:nonzero;"/></g><path d="M140.251,142.429l-15.079,4.217c-0.113,0.032 -0.232,0.031 -0.345,-0.001l-14.998,-4.266c-0.253,-0.072 -0.436,-0.292 -0.459,-0.554l-3.367,-37.803c-0.034,-0.371 0.259,-0.691 0.632,-0.691l36.73,-0c0.372,-0 0.665,0.319 0.633,0.69l-3.285,37.851c-0.023,0.264 -0.207,0.486 -0.462,0.557Zm-3.763,-31.178l-23.029,0c-0.242,0 -0.435,0.203 -0.423,0.444l0.175,3.654c0.011,0.226 0.197,0.404 0.423,0.404l17.718,-0c0.243,-0 0.436,0.203 0.423,0.446l-0.214,3.957c-0.012,0.225 -0.198,0.401 -0.423,0.401l-16.876,0c-0.251,0 -0.447,0.217 -0.422,0.466l0.391,3.871c0.022,0.216 0.204,0.381 0.421,0.381l16.025,-0c0.252,-0 0.448,0.219 0.421,0.47l-0.652,5.909c-0.02,0.173 -0.143,0.316 -0.31,0.362l-5.027,1.366c-0.072,0.02 -0.148,0.02 -0.22,0l-4.962,-1.321c-0.174,-0.046 -0.3,-0.198 -0.313,-0.377l-0.251,-3.291c-0.016,-0.221 -0.201,-0.392 -0.422,-0.392l-3.913,0c-0.246,0 -0.44,0.209 -0.422,0.455l0.508,6.995c0.012,0.179 0.136,0.33 0.309,0.378l9.463,2.616c0.074,0.02 0.152,0.02 0.226,-0.001l9.433,-2.616c0.171,-0.048 0.294,-0.196 0.309,-0.372l2.056,-23.745c0.021,-0.247 -0.174,-0.46 -0.422,-0.46Z" style="fill:#745cb8;fill-rule:nonzero;"/><path d="M167.21,120.432l14.929,-13.608c0.816,-0.744 1.999,-0.92 2.995,-0.453c0.054,0.009 0.107,0.026 0.16,0.052l7.017,3.536c1.036,0.522 1.689,1.582 1.689,2.742l0,25.052c0,0.931 -0.535,1.778 -1.375,2.178l-7.342,3.495l-0.007,0.003l-0.361,0.22c-0.881,0.424 -1.931,0.272 -2.655,-0.385l-14.984,-13.597l-6.578,4.795c-0.67,0.51 -1.608,0.466 -2.227,-0.103l-1.856,-1.705c-0.753,-0.692 -0.75,-1.879 0.005,-2.568l5.547,-5.056l-5.656,-5.132c-0.69,-0.627 -0.68,-1.716 0.023,-2.33l2.324,-2.03c0.492,-0.43 1.219,-0.456 1.74,-0.062l6.612,4.956Zm6.279,4.706l11.022,8.262l0,-16.297l-11.022,8.035Z" style="fill:#745cb8;fill-rule:nonzero;"/><g id="react-logo"><path d="M78.5,125c0,1.933 -1.567,3.5 -3.5,3.5c-1.933,0 -3.5,-1.567 -3.5,-3.5c-0,-1.933 1.567,-3.5 3.5,-3.5c1.933,-0 3.5,1.567 3.5,3.5" style="fill:#745cb8;fill-rule:nonzero;"/><path d="M81.799,121.075c-3.092,-5.356 -6.855,-9.508 -10.105,-11.553c-2.435,-1.531 -4.642,-1.873 -6.194,-0.976c-1.552,0.896 -2.36,2.978 -2.251,5.852c0.145,3.837 1.86,9.172 4.952,14.527c3.092,5.356 6.855,9.508 10.105,11.553c2.435,1.531 4.642,1.873 6.194,0.976l0,0c1.552,-0.896 2.36,-2.978 2.251,-5.852c-0.145,-3.837 -1.86,-9.172 -4.952,-14.527l0,-0Zm-1.409,0.813c2.934,5.083 4.597,10.134 4.735,13.776c0.043,1.129 -0.061,2.113 -0.337,2.902c-0.233,0.666 -0.586,1.182 -1.102,1.479c-0.515,0.298 -1.138,0.346 -1.832,0.215c-0.821,-0.156 -1.725,-0.558 -2.681,-1.16c-3.085,-1.94 -6.628,-5.906 -9.563,-10.988c-2.934,-5.083 -4.597,-10.134 -4.735,-13.776c-0.043,-1.129 0.061,-2.113 0.337,-2.902c0.233,-0.666 0.586,-1.182 1.102,-1.479l-0,-0c0.515,-0.298 1.138,-0.346 1.832,-0.215c0.821,0.156 1.725,0.558 2.681,1.16c3.085,1.94 6.628,5.906 9.563,10.988l-0,0Z" style="fill:#745cb8;"/><path d="M81.799,128.925c3.092,-5.355 4.807,-10.69 4.952,-14.527c0.109,-2.874 -0.699,-4.956 -2.251,-5.852l0,-0c-1.552,-0.897 -3.759,-0.555 -6.194,0.976c-3.25,2.045 -7.013,6.197 -10.105,11.553c-3.092,5.355 -4.807,10.69 -4.952,14.527c-0.109,2.874 0.699,4.956 2.251,5.852c1.552,0.897 3.759,0.555 6.194,-0.976c3.25,-2.045 7.013,-6.197 10.105,-11.553l0,0Zm-1.409,-0.813c-2.935,5.082 -6.478,9.048 -9.563,10.988c-0.956,0.602 -1.86,1.004 -2.681,1.16c-0.694,0.131 -1.317,0.083 -1.832,-0.215l-0,0c-0.516,-0.297 -0.869,-0.813 -1.102,-1.479c-0.276,-0.789 -0.38,-1.773 -0.337,-2.902c0.138,-3.642 1.801,-8.693 4.735,-13.776c2.935,-5.082 6.478,-9.048 9.563,-10.988c0.956,-0.602 1.86,-1.004 2.681,-1.16c0.694,-0.131 1.317,-0.083 1.832,0.215c0.516,0.297 0.869,0.813 1.102,1.479c0.276,0.789 0.38,1.773 0.337,2.902c-0.138,3.642 -1.801,8.693 -4.735,13.776l-0,-0Z" style="fill:#745cb8;"/><path d="M75,132.851c6.184,-0 11.662,-1.183 15.057,-2.975c2.543,-1.343 3.943,-3.084 3.943,-4.876c0,-1.792 -1.4,-3.533 -3.943,-4.876c-3.395,-1.792 -8.873,-2.975 -15.057,-2.975c-6.184,0 -11.662,1.183 -15.057,2.975c-2.543,1.343 -3.943,3.084 -3.943,4.876c0,1.792 1.4,3.533 3.943,4.876c3.395,1.792 8.873,2.975 15.057,2.975Zm0,-1.627c-5.869,-0 -11.075,-1.086 -14.298,-2.787c-0.999,-0.528 -1.799,-1.11 -2.344,-1.743c-0.461,-0.535 -0.731,-1.099 -0.731,-1.694c0,-0.595 0.27,-1.159 0.731,-1.694c0.545,-0.633 1.345,-1.215 2.344,-1.742c3.223,-1.702 8.429,-2.788 14.298,-2.788c5.869,0 11.075,1.086 14.298,2.788c0.999,0.527 1.799,1.109 2.344,1.742c0.461,0.535 0.731,1.099 0.731,1.694c-0,0.595 -0.27,1.159 -0.731,1.694c-0.545,0.633 -1.345,1.215 -2.344,1.743c-3.223,1.701 -8.429,2.787 -14.298,2.787Z" style="fill:#745cb8;"/></g></g><g id="row2"><g id="node-icon"><path d="M159.799,70.789l-4.075,2.353l0,6.06l2.703,-1.355l0,-1.864l0,0l0,-1.151c0,-0.11 0.059,-0.212 0.154,-0.267l1.064,-0.614c0.096,-0.056 0.213,-0.056 0.308,-0l1.065,0.614c0.095,0.055 0.154,0.157 0.154,0.267l-0,1.151l-0.001,0l0.001,1.864l2.702,1.355l0,-1.355l0,0l0,-4.705l-4.075,-2.353Z" style="fill:#745cb8;fill-rule:nonzero;"/><path d="M165.692,73.142l-0,4.705l4.075,2.353l4.075,-2.353l-0,-4.705l-4.075,-2.353l-4.075,2.353Z" style="fill:#745cb8;fill-rule:nonzero;"/><path d="M169.767,80.2l-4.075,-2.353l1.911,-1.395l2.164,3.748Z" style="fill:#745cb8;fill-rule:nonzero;"/><path d="M169.767,70.789l2.038,3.529l2.037,-1.176l-4.075,-2.353Z" style="fill:#745cb8;fill-rule:nonzero;"/><path d="M169.767,80.2l-4.075,-2.353l-0,-4.705l4.075,7.058Z" style="fill:#745cb8;fill-rule:nonzero;"/><path d="M173.842,77.847l-0,-4.705l-4.075,-2.353l4.075,7.058Z" style="fill:#745cb8;fill-rule:nonzero;"/><path d="M181.102,76.29l-1.371,0.792l-1.37,-0.792l-0,-1.582l1.37,-0.792l1.371,0.792l-0,1.582Zm2.7,-3.146l0,-6.12l-2.722,-1.477l-0,6.025l-1.349,-0.779l-4.075,2.353l0,4.706l4.075,2.352l4.075,-2.352l0,-4.706l-0.004,-0.002Z" style="fill:#745cb8;fill-rule:nonzero;"/><path d="M188.874,75.048l0,0.894l0.775,0.448l0.775,-0.448l-0,-0.894l-0.775,-0.447l-0.775,0.447Z" style="fill:#745cb8;fill-rule:nonzero;"/><path d="M192.383,78.622l-2.727,-1.541l-0.007,0.004l-1.377,-0.795l0,-1.59l1.377,-0.795l1.377,0.795l0,1.558l2.698,-1.59l0,-1.526l-4.075,-2.352l-4.075,2.352l0,4.706l4.075,2.353" style="fill:#745cb8;fill-rule:nonzero;"/></g><g id="js-logo"><path d="M40.618,94l-31.236,0c-1.868,0 -3.382,-1.514 -3.382,-3.382l-0,-31.236c-0,-1.868 1.514,-3.382 3.382,-3.382l31.236,0c1.868,0 3.382,1.514 3.382,3.382l-0,31.236c-0,1.868 -1.514,3.382 -3.382,3.382" style="fill:#745cb8;fill-rule:nonzero;"/><path d="M16.376,87.521l1.563,-1.163c0.298,-0.222 0.715,-0.154 0.938,0.143c0.587,0.784 1.31,1.146 2.03,1.146c1.389,0 2.139,-0.709 2.139,-3l0,-10.464c0,-0.373 0.303,-0.676 0.676,-0.676l2.531,-0c0.374,-0 0.677,0.303 0.677,0.676l-0,10.786c-0,3.306 -1.715,6.031 -5.511,6.031c-2.381,0 -4.023,-0.843 -5.196,-2.551c-0.207,-0.301 -0.14,-0.711 0.153,-0.928" style="fill:#8167c2;fill-rule:nonzero;"/><path d="M29.343,88.006l1.378,-1.646c0.228,-0.273 0.631,-0.325 0.916,-0.112c1.138,0.845 2.498,1.399 3.728,1.399c1.621,0 2.414,-0.638 2.414,-1.658c0,-1.081 -0.976,-1.428 -2.477,-2.045l-2.232,-0.952c-1.78,-0.724 -3.466,-2.186 -3.466,-4.682c-0,-2.846 2.542,-5.119 6.118,-5.119c1.766,-0 3.604,0.621 5.031,1.802c0.285,0.236 0.328,0.656 0.097,0.945l-1.163,1.453c-0.221,0.275 -0.613,0.33 -0.906,0.134c-0.955,-0.636 -1.905,-0.981 -3.059,-0.981c-1.339,-0 -2.191,0.557 -2.191,1.54c-0,1.053 1.123,1.436 2.623,2.033l2.188,0.887c2.098,0.848 3.408,2.245 3.408,4.672c-0,2.853 -2.379,5.324 -6.472,5.324c-2.017,0 -4.148,-0.689 -5.832,-2.026c-0.3,-0.238 -0.349,-0.674 -0.103,-0.968" style="fill:#8167c2;fill-rule:nonzero;"/></g><path d="M74.42,56.05c-0.462,0.146 -0.862,0.546 -1.661,1.345l-5.768,5.768c0.596,0.253 4.763,2.014 5.299,2.247c0.034,0.015 0.073,0.031 0.1,0.003c0.536,-0.429 1.248,-0.566 1.905,-0.367c0.03,0.01 0.065,0.017 0.089,0c0.017,-0.013 0.031,-0.029 0.041,-0.047l4.103,-6.354l-1.251,-1.25c-0.798,-0.799 -1.198,-1.199 -1.66,-1.345c-0.195,-0.061 -0.397,-0.092 -0.599,-0.092c-0.201,0 -0.403,0.031 -0.598,0.092Zm0.945,9.72c-0.024,0.046 0.007,0.094 0.034,0.139c0.169,0.276 0.274,0.587 0.308,0.908c-0,0.038 0.044,0.056 0.08,0.071l5.783,2.457c0.014,0.005 0.029,0.008 0.043,0.007c0.018,-0.002 0.029,-0.013 0.04,-0.025c0.006,-0.006 0.013,-0.012 0.02,-0.017c0.164,-0.12 0.348,-0.211 0.543,-0.27c0.02,-0.006 0.04,-0.01 0.05,-0.03c0.004,-0.012 0.007,-0.025 0.008,-0.038l-0,-0.015l0.913,-5.653l-3.788,-3.788l-4.034,6.254Zm-13.73,2.749l4.771,6.958c0.012,0.019 0.027,0.036 0.044,0.05c0.016,0.012 0.034,0.008 0.054,0.005l0.001,0c0.178,-0.033 0.355,-0.062 0.518,-0.062c0.182,0.002 0.362,0.027 0.538,0.073c0.028,0.007 0.062,0.014 0.086,-0.001c0.02,-0.013 0.03,-0.03 0.042,-0.05l4.538,-7.028c0.026,-0.037 0.056,-0.079 0.026,-0.109c-0.467,-0.479 -0.662,-1.16 -0.519,-1.814c0.004,-0.018 0.008,-0.041 0,-0.059c-0.012,-0.03 -0.039,-0.042 -0.069,-0.054c-0.296,-0.129 -1.236,-0.526 -2.268,-0.962c-1.363,-0.576 -2.887,-1.219 -3.306,-1.403l-4.456,4.456Zm21.84,0.53c-0.005,0.033 0.005,0.067 0.028,0.092c0.007,0.007 0.015,0.01 0.023,0.013l0.014,0.006c0.185,0.095 0.352,0.223 0.491,0.378c0.01,0.01 0.015,0.014 0.02,0.017l0.015,-0c0.011,-0 0.022,-0.002 0.033,-0.006l3.74,-1.592l-3.597,-3.597l-0.767,4.689Zm-8.075,-0.999c-0.013,0.012 -0.024,0.025 -0.033,0.04c-0.377,0.562 -1.002,0.89 -1.677,0.89c-0.09,0 -0.18,-0.013 -0.281,-0.027l-0.045,-0.007c-0.047,0 -0.077,0.047 -0.103,0.089l-4.454,6.897c-0.005,0.007 -0.01,0.013 -0.014,0.02c-0.027,0.038 -0.057,0.079 -0.027,0.109c0.017,0.017 0.035,0.017 0.051,0.017c0.017,-0 11.195,-4.766 12.052,-5.133l0.011,-0.003c0.036,-0.015 0.074,-0.031 0.074,-0.069l0,-0.152c0,-0.091 0.014,-0.181 0.03,-0.261c0.005,-0.018 0.005,-0.038 0,-0.056c-0.013,-0.031 -0.046,-0.044 -0.075,-0.058l-5.411,-2.292c-0.019,-0.008 -0.04,-0.015 -0.06,-0.015c-0.014,0 -0.027,0.003 -0.038,0.011Zm13.357,0.824l-3.961,1.676c-0.037,0.014 -0.081,0.032 -0.081,0.07c0,0.038 0.043,0.055 0.08,0.069l9.205,3.899c-0.014,-0.071 -0.032,-0.139 -0.053,-0.208c-0.146,-0.462 -0.546,-0.861 -1.345,-1.661l-3.845,-3.845Zm-31.322,3.845c-0.8,0.8 -1.199,1.199 -1.346,1.661c-0.05,0.159 -0.08,0.324 -0.089,0.49l8.879,1.863l0.002,-0c0.015,0.003 0.028,0.006 0.041,-0.002c0.022,-0.016 0.039,-0.038 0.05,-0.062c0.102,-0.189 0.247,-0.364 0.392,-0.524c0.031,-0.03 0.001,-0.069 -0.026,-0.105c-1.534,-2.208 -3.064,-4.42 -4.59,-6.634l-3.313,3.313Zm26.731,-0.961c-0.012,0.006 -0.018,0.017 -0.027,0.027c-0.28,0.365 -0.694,0.603 -1.151,0.66c-0.044,-0 -0.053,0.057 -0.059,0.107l-1.059,6.496c-0.002,0.004 -0.002,0.009 -0.002,0.014c-0.007,0.033 -0.013,0.069 0.01,0.091c0.371,0.288 0.607,0.716 0.65,1.184c-0,0.045 0.052,0.054 0.102,0.062l5.637,1.173l4.336,-4.334c0.655,-0.656 1.042,-1.043 1.24,-1.416l-0.001,-0l-9.574,-4.05c-0.023,-0.01 -0.049,-0.02 -0.073,-0.02c-0.01,-0 -0.02,0.002 -0.029,0.006Zm-14.865,5.409c0.01,0.001 0.151,0.514 0.161,0.516l9.716,2.004c0.022,0.005 0.049,0.009 0.07,-0.001c0.023,-0.012 0.036,-0.034 0.049,-0.056l0.005,-0.008c0.288,-0.488 0.798,-0.802 1.363,-0.841c0.046,0 0.053,-0.056 0.06,-0.106l1.048,-6.437c0.002,-0.009 0.002,-0.015 0.002,-0.025c-0.002,-0.025 -0.027,-0.041 -0.052,-0.055l-0.027,-0.017c-0.054,-0.042 -0.111,-0.086 -0.177,-0.153c-0.017,-0.017 -0.035,-0.017 -0.035,-0.017l-12.183,5.196Zm-13.301,-2.296c0,0 0,-0 0,-0.001l0,0l0,0.001Zm1.435,2.367l2.589,2.589l4.326,-1.832c0.049,-0.019 0.108,-0.042 0.108,-0.092c0,-0.045 -0.054,-0.054 -0.102,-0.062c-0.01,-0.002 -0.02,-0.003 -0.03,-0.005l-7.874,-1.633c0.223,0.275 0.542,0.594 0.983,1.035Zm11.652,1.586c-0.024,0.013 -0.036,0.036 -0.05,0.06l-0.003,0.003l-0.095,0.156l-0.009,0.013c-0.011,0.012 -0.021,0.026 -0.022,0.042c-0.003,0.022 0.012,0.041 0.026,0.059l8.894,12.855l0.804,-0.804c0.285,-1.751 1.349,-8.238 1.473,-8.992c0.003,-0.015 0.008,-0.03 0.015,-0.044c0.013,-0.033 0.025,-0.064 -0.003,-0.078c-0.504,-0.208 -0.881,-0.639 -1.02,-1.166c-0.003,-0.015 -0.006,-0.029 -0.019,-0.042c-0.022,-0.017 -0.048,-0.029 -0.075,-0.033l-9.843,-2.03c-0.013,-0.003 -0.027,-0.005 -0.041,-0.005c-0.011,-0 -0.022,0.002 -0.032,0.006Zm-4.115,0.185l-4.042,1.724l2.047,2.047l0.001,-0l2.232,-3.466c0.012,-0.016 0.02,-0.033 0.008,-0.049l-0.142,-0.199c-0.018,-0.03 -0.038,-0.064 -0.071,-0.064c-0.012,-0 -0.023,0.002 -0.033,0.007Zm2.951,0.888c-0.516,0.214 -1.091,0.243 -1.626,0.082c-0.029,-0.01 -0.065,-0.018 -0.09,-0c-0.018,0.013 -0.029,0.029 -0.04,0.047l-2.33,3.614l8.922,8.922c0.799,0.8 1.199,1.199 1.661,1.346c0.389,0.123 0.807,0.123 1.197,-0c0.394,-0.125 0.743,-0.436 1.336,-1.022l-8.928,-12.956c-0.008,-0.011 -0.018,-0.022 -0.028,-0.031c-0.01,-0.009 -0.02,-0.012 -0.032,-0.012c-0.013,-0 -0.028,0.004 -0.042,0.01Zm14.297,1.642c-0.036,0.005 -0.065,0.031 -0.089,0.059c-0.186,0.223 -0.422,0.399 -0.69,0.513l-0.011,0.005c-0.025,0.01 -0.051,0.02 -0.061,0.044c-0.003,0.009 -0.005,0.019 -0.006,0.028l-1.222,7.511l7.129,-7.13l-0.001,0.001l-5.02,-1.031c-0.005,-0.001 -0.01,-0.002 -0.014,-0.002c-0.005,0 -0.01,0.001 -0.015,0.002Zm-5.267,11.347l0,0.001l0,-0.001c-0,-0 -0,0 -0,0Z" style="fill:#745cb8;fill-rule:nonzero;"/><path d="M142.231,78.831l0.355,-0c0.03,0.219 0.244,0.358 0.553,0.358c0.287,-0 0.498,-0.149 0.498,-0.354c0,-0.176 -0.134,-0.281 -0.439,-0.353l-0.297,-0.072c-0.417,-0.098 -0.608,-0.299 -0.608,-0.639c0,-0.411 0.336,-0.684 0.839,-0.684c0.469,-0 0.81,0.273 0.831,0.662l-0.348,-0c-0.034,-0.213 -0.219,-0.346 -0.488,-0.346c-0.282,0 -0.471,0.136 -0.471,0.344c0,0.165 0.122,0.26 0.422,0.33l0.254,0.062c0.473,0.111 0.668,0.303 0.668,0.65c0,0.442 -0.342,0.718 -0.888,0.718c-0.512,0 -0.855,-0.264 -0.881,-0.676l0,-0Zm-1.884,0.02l0.352,0c0.004,0.191 0.143,0.319 0.348,0.319c0.228,-0 0.358,-0.138 0.358,-0.395l-0,-1.632l0.358,-0l-0,1.633c-0,0.464 -0.269,0.731 -0.713,0.731c-0.417,0 -0.703,-0.259 -0.703,-0.656l0,0Zm-0.645,0.628c-0.135,-0 -0.235,-0.104 -0.235,-0.239c-0,-0.134 0.1,-0.238 0.235,-0.238c0.135,-0 0.234,0.104 0.234,0.238c0,0.135 -0.099,0.239 -0.234,0.239m-33.702,-9.962l0.821,-0l11.325,16.945l-4.68,-6.242l-6.779,-9.894l-0.03,9.894l-0.657,0l0,-10.703Zm25.6,0.569l0,-0.569l8.168,-0l-0,0.569l-3.763,0l-0,10.134l-0.657,0l-0,-10.134l-3.748,0Zm-8.824,-0.569l0.761,-0l3.375,4.707l3.449,-4.707l4.691,-5.979l-7.707,11.181l3.972,5.501l-0.792,0l-3.613,-5.007l-3.629,5.007l-0.776,0l4.001,-5.502l-3.732,-5.201Zm-7.81,-0l7.168,-0l-0,0.569l-6.511,0l0,4.288l6.122,-0l0,0.569l-6.122,0l0,4.708l6.585,-0l0,0.569l-7.242,0l0,-10.703Z" style="fill:#745cb8;fill-rule:nonzero;"/></g><g id="row1"><g id="figma-logo"><path d="M36.235,44l-22.47,-0c-4.288,-0 -7.765,-3.477 -7.765,-7.765l-0,-22.47c-0,-4.288 3.477,-7.765 7.765,-7.765l22.47,-0c4.288,-0 7.765,3.477 7.765,7.765l-0,22.47c-0,4.288 -3.477,7.765 -7.765,7.765" style="fill:#745cb7;fill-rule:nonzero;"/><path d="M24.703,19.829l-4.693,-0c-2.513,-0 -4.551,-2.038 -4.551,-4.552c-0,-2.592 2.101,-4.693 4.693,-4.693l4.551,0l0,9.245Z" style="fill:#8167c2;fill-rule:nonzero;"/><path d="M24.703,10.584l4.694,-0c2.513,-0 4.551,2.038 4.551,4.552c0,2.592 -2.101,4.693 -4.693,4.693l-4.552,-0l0,-9.245Z" style="fill:#8167c2;fill-rule:nonzero;"/><path d="M24.703,29.073l-4.693,0c-2.513,0 -4.551,-2.037 -4.551,-4.551c-0,-2.592 2.101,-4.693 4.693,-4.693l4.551,-0l0,9.244Z" style="fill:#8167c2;fill-rule:nonzero;"/><path d="M20.01,38.318c-2.513,0 -4.551,-2.038 -4.551,-4.552c-0,-2.591 2.101,-4.693 4.693,-4.693l4.551,0l0,4.552c0,2.592 -2.101,4.693 -4.693,4.693" style="fill:#8167c2;fill-rule:nonzero;"/><path d="M29.255,29.073c-2.514,0 -4.552,-2.037 -4.552,-4.551c0,-2.592 2.102,-4.693 4.694,-4.693c2.513,-0 4.551,2.038 4.551,4.551c0,2.592 -2.101,4.693 -4.693,4.693" style="fill:#8167c2;fill-rule:nonzero;"/></g><path d="M78.257,39.521l-17.779,-17.778c1.493,-6.65 7.465,-11.672 14.522,-11.672c5.021,0 9.364,2.443 12.079,6.108l-2.036,1.764c-2.307,-3.122 -5.972,-5.157 -10.043,-5.157c-5.293,-0 -9.772,3.393 -11.536,8.143l15.607,15.607c3.936,-1.357 6.922,-4.75 7.872,-8.822l-6.514,0l-0,-2.714l9.5,0c-0,7.057 -5.022,13.028 -11.672,14.521m-13.843,-3.935c-2.85,-2.85 -4.343,-6.65 -4.343,-10.315l14.793,14.658c-3.8,-0.136 -7.6,-1.493 -10.45,-4.343m10.586,-29.586c-10.45,0 -19,8.55 -19,19c0,10.45 8.55,19 19,19c10.45,0 19,-8.55 19,-19c0,-10.45 -8.55,-19 -19,-19" style="fill:#745cb8;fill-rule:nonzero;"/><path d="M121.448,8.495c-0.09,-0.325 -0.138,-0.668 -0.138,-1.022c-0,-2.117 1.717,-3.834 3.834,-3.834c2.118,-0 3.834,1.717 3.834,3.834c0,0.365 -0.051,0.718 -0.146,1.053l8.618,5.059c0.695,-0.696 1.655,-1.127 2.716,-1.127c2.117,0 3.834,1.717 3.834,3.834c0,1.787 -1.221,3.287 -2.875,3.713l0,10.02c1.654,0.426 2.875,1.927 2.875,3.713c0,2.118 -1.717,3.834 -3.834,3.834c-1.063,0 -2.025,-0.432 -2.72,-1.131l-8.612,5.039c0.094,0.333 0.144,0.684 0.144,1.047c0,2.118 -1.716,3.834 -3.834,3.834c-2.117,0 -3.834,-1.716 -3.834,-3.834c-0,-0.352 0.047,-0.693 0.136,-1.017l-8.87,-5.092c-0.696,0.712 -1.667,1.154 -2.742,1.154c-2.117,0 -3.834,-1.716 -3.834,-3.834c0,-1.786 1.221,-3.287 2.875,-3.713l-0,-10.02c-1.654,-0.426 -2.875,-1.926 -2.875,-3.713c0,-2.117 1.717,-3.834 3.834,-3.834c1.072,0 2.042,0.44 2.738,1.15l8.876,-5.113Zm15.005,26.202c0.007,0.03 0.015,0.059 0.023,0.088l-8.612,5.039c-0.695,-0.699 -1.657,-1.131 -2.72,-1.131c-1.074,-0 -2.046,0.442 -2.742,1.154l-8.87,-5.093c0.005,-0.019 0.01,-0.037 0.015,-0.057l22.906,0Zm-12.35,-23.533c0.331,0.093 0.68,0.143 1.041,0.143c0.35,0 0.689,-0.047 1.011,-0.134l11.335,19.819c-0.495,0.482 -0.86,1.097 -1.037,1.786l-22.906,0c-0.175,-0.679 -0.531,-1.285 -1.014,-1.764l11.57,-19.85Zm-1.697,-1.007c0.014,0.014 0.027,0.027 0.04,0.04l-11.571,19.85c-0.027,-0.008 -0.054,-0.015 -0.081,-0.022l-0,-10.02c1.653,-0.426 2.874,-1.926 2.874,-3.713c0,-0.353 -0.048,-0.696 -0.137,-1.022l8.875,-5.113Zm5.454,0.023l8.618,5.06c-0.095,0.334 -0.146,0.687 -0.146,1.052c-0,1.787 1.221,3.287 2.874,3.713l0,10.02c-0.017,0.004 -0.034,0.009 -0.051,0.013l-11.335,-19.819c0.013,-0.013 0.026,-0.026 0.04,-0.039Z" style="fill:#745cb8;"/><path d="M190.251,42.738l-15.079,4.216c-0.113,0.032 -0.232,0.031 -0.345,-0.001l-14.998,-4.265c-0.253,-0.072 -0.436,-0.293 -0.459,-0.555l-3.367,-37.802c-0.034,-0.372 0.259,-0.692 0.632,-0.692l36.73,-0c0.372,-0 0.665,0.319 0.633,0.69l-3.285,37.852c-0.023,0.263 -0.207,0.485 -0.462,0.557Zm-3.852,-31.131l-22.913,0c-0.248,0 -0.443,0.214 -0.422,0.461l1.199,13.666c0.019,0.219 0.203,0.386 0.422,0.386l15.698,0c0.249,0 0.444,0.214 0.422,0.462l-0.492,5.358c-0.016,0.175 -0.138,0.322 -0.307,0.369l-4.896,1.368c-0.073,0.02 -0.149,0.021 -0.222,0.001l-5.001,-1.318c-0.175,-0.047 -0.302,-0.2 -0.314,-0.382l-0.208,-3.12c-0.015,-0.222 -0.2,-0.395 -0.423,-0.395l-3.982,-0c-0.247,-0 -0.442,0.211 -0.422,0.458l0.55,6.784c0.014,0.177 0.137,0.326 0.308,0.374l9.431,2.638c0.074,0.021 0.152,0.021 0.226,0.001l9.482,-2.59c0.171,-0.047 0.294,-0.195 0.31,-0.371l1.257,-14.115c0.022,-0.248 -0.173,-0.461 -0.422,-0.461l-16.563,-0c-0.22,-0 -0.404,-0.169 -0.422,-0.388l-0.336,-3.991c-0.021,-0.247 0.174,-0.459 0.422,-0.459l17.325,0c0.222,0 0.406,-0.171 0.423,-0.392l0.292,-3.888c0.019,-0.246 -0.175,-0.456 -0.422,-0.456Z" style="fill:#745cb8;fill-rule:nonzero;"/></g></g></svg>